{"title":"Bronson 2008 DVDRip Xvid BigPerm LKRG","uid":5824304,"size":1006025828,"categoryP":"video","categoryS":"movies","magnet":"?xt=urn:btih:f0d3b6667bc8b7e71410da0ef989d78db562d00c&amp;dn=Bronson+2008+DVDRip+Xvid+BigPerm+LKRG&amp;tr=udp%3A%2F%2Ftracker.openbittorrent.com%3A80&amp;tr=udp%3A%2F%2Fopen.demonii.com%3A1337&amp;tr=udp%3A%2F%2Ftracker.coppersurfer.tk%3A6969&amp;tr=udp%3A%2F%2Fexodus.desync.com%3A6969","seeders":0,"leechers":0,"uploader":"neon","files":-1,"time":1284197697,"description":"Thanks to BigPerm for this Release\n\nBronson 2008 DVDRip Xvid BigPerm LKRG\n\nA young man who was sentenced to 7 years on prison for robbing a post office ends up spending 30 years in solitary confinement. During this time, his own personality is supplanted by his alter ego, Charles Bronson.\n\nTom Hardy ... Charles Bronson / Michael Peterson\n\nKelly Adams ... Irene\nLuing Andrews ... Hysterical Screw\nKaty Barker ... Julie\nGordon Brown ... Screw\nAmanda Burton ... Charlie's Mum\nMark Devenport ... Nurse 1\nPaul Donnelly ... Screw\nAndrew Forbes ... Charlie's Dad\nJon House ... Webber\nMatt King ... Paul Daniels\nJames Lance ... Phil\nHolly Lucas ... Young Man\nJuliet Oldfield ... Alison\nJonathan Phillips ... Prison Governor\n\n &lt;a href=&quot; http://www.imdb.com/title/tt1172570/&quot; rel=&quot;nofollow&quot; target=&quot;_NEW&quot;&gt; http://www.imdb.com/title/tt1172570/&lt;/a&gt;\n\n\nGeneral\n\nComplete name : Bronson 2008 DVDRip Xvid BigPerm LKRG\\B_LKRG.avi\nFormat : AVI\nFormat/Info : Audio Video Interleave\nFile size : 959 MiB\nDuration : 1h 32mn\nOverall bit rate : 1 450 Kbps\n\nVideo\nID : 0\nFormat : MPEG-4 Visual\nFormat profile : Advanced Simple@L5\nFormat settings, BVOP : Yes\nFormat settings, QPel : No\nFormat settings, GMC : No warppoints\nFormat settings, Matrix : Default (H.263)\nCodec ID : XVID\nCodec ID/Hint : XviD\nDuration : 1h 32mn\nBit rate : 996 Kbps\nWidth : 700 pixels\nHeight : 392 pixels\nDisplay aspect ratio : 16:9\nFrame rate : 29.970 fps\nResolution : 8 bits\nColorimetry : 4:2:0\nScan type : Progressive\nBits/(Pixel*Frame) : 0.121\nStream size : 659 MiB (69%)\nWriting library : XviD 1.2.1 (UTC 2008-12-04)\n\nAudio\nID : 1\nFormat : AC-3\nFormat/Info : Audio Coding 3\nCodec ID : 2000\nDuration : 1h 32mn\nBit rate mode : Constant\nBit rate : 448 Kbps\nChannel(s) : 6 channels\nChannel positions : Front: L C R, Side: L R, LFE\nSampling rate : 48.0 KHz\nResolution : 16 bits\nVideo delay : 33ms\nStream size : 296 MiB (31%)\nAlignment : Split accross interleaves\nInterleave, duration : 500 ms (14.98 video frames)\nInterleave, preload duration : 500 ms\nLanguage : English","torrent":{"xt":"urn:btih:f0d3b6667bc8b7e71410da0ef989d78db562d00c","amp;dn":"Bronson+2008+DVDRip+Xvid+BigPerm+LKRG","amp;tr":["udp%3A%2F%2Ftracker.openbittorrent.com%3A80","udp%3A%2F%2Fopen.demonii.com%3A1337","udp%3A%2F%2Ftracker.coppersurfer.tk%3A6969","udp%3A%2F%2Fexodus.desync.com%3A6969"],"infoHash":"f0d3b6667bc8b7e71410da0ef989d78db562d00c","infoHashBuffer":{"type":"Buffer","data":[240,211,182,102,123,200,183,231,20,16,218,14,249,137,215,141,181,98,208,12]},"announce":[],"urlList":[]}}